<?xml version="1.0" encoding="utf-8"?>
<!-- Generator: Adobe Illustrator 15.0.0, SVG Export Plug-In . SVG Version: 6.00 Build 0)  -->
<!DOCTYPE svg PUBLIC "-//W3C//DTD SVG 1.1//EN" "http://www.w3.org/Graphics/SVG/1.1/DTD/svg11.dtd">
<svg version="1.1" id="Warstwa_1" xmlns="http://www.w3.org/2000/svg" xmlns:xlink="http://www.w3.org/1999/xlink" x="0px" y="0px"
	 width="60px" height="60px" viewBox="30 30 60 60" enable-background="new 30 30 60 60" xml:space="preserve">
<g id="Warstwa_2" display="none">
	<rect x="30.334" y="30.327" display="inline" fill="#FFFFFF" stroke="#1D1D1B" stroke-miterlimit="10" width="60" height="60"/>
</g>
<g id="Warstwa_1_1_">
	<g>
		<path fill="#099268" d="M54.94,40.012H34.734c-1.877,0-3.4,1.521-3.4,3.399v19.355h23.605L54.94,40.012L54.94,40.012z"/>
		<path fill="#099268" d="M54.94,88.638H34.734c-1.878,0-3.4-1.522-3.4-3.399V65.882l23.605,0.001L54.94,88.638L54.94,88.638z"/>
		<path fill="#099268" d="M57.961,88.638h20.207c1.875,0,3.397-1.522,3.397-3.399V65.882H57.961V88.638z"/>
		<path fill="#F43131" d="M74.052,32.015L88.34,46.303c1.326,1.327,1.326,3.48,0,4.806L74.652,64.797l-16.69-16.691L74.052,32.015z"
			/>
	</g>
</g>
</svg>
