<?xml version="1.0" encoding="utf-8"?>
<!-- Generator: Adobe Illustrator 15.0.0, SVG Export Plug-In . SVG Version: 6.00 Build 0)  -->
<!DOCTYPE svg PUBLIC "-//W3C//DTD SVG 1.1//EN" "http://www.w3.org/Graphics/SVG/1.1/DTD/svg11.dtd">
<svg version="1.1" id="Warstwa_1" xmlns="http://www.w3.org/2000/svg" xmlns:xlink="http://www.w3.org/1999/xlink" x="0px" y="0px"
	 width="120px" height="120px" viewBox="0 0 120 120" enable-background="new 0 0 120 120" xml:space="preserve">
<g id="Warstwa_2" display="none">
	<rect y="0" display="inline" fill="#FFFFFF" stroke="#1D1D1B" stroke-miterlimit="10" width="120" height="120"/>
</g>
<g id="Warstwa_1_1_">
	<g>
		<path fill="#099268" d="M49.002,18.582H7.805c-3.827,0-6.931,3.103-6.931,6.931v39.463H49V18.582H49.002z"/>
		<path fill="#099268" d="M49.002,117.722H7.805c-3.828,0-6.931-3.104-6.931-6.93V71.327L49,71.329v46.393H49.002z"/>
		<path fill="#099268" d="M55.162,117.722h41.195c3.826,0,6.931-3.104,6.931-6.93V71.327H55.162V117.722z"/>
		<path fill="#F43131" d="M87.966,2.278l29.132,29.13c2.705,2.707,2.705,7.096,0,9.8L89.191,69.114l-34.028-34.03L87.966,2.278z"/>
	</g>
</g>
</svg>
